<svg xmlns="http://www.w3.org/2000/svg" viewBox="0 0 448 512">
  <path fill="#333" d="M220.8 123.3c1 .5 1.8 1.7 3 1.7 1.1 0 2.8-.4 2.9-1.5.2-1.4-1.9-2.3-3.2-2.9-1.7-.7-3.9-1-5.5-.1-.4.2-.8.7-.6 1.1.3 1.3 2.3 1.1 3.4 1.7zm-21.9 1.7c1.2 0 2-1.2 3-1.7 1.1-.6 3.1-.4 3.5-1.6.2-.4-.2-.9-.6-1.1-1.6-.9-3.8-.6-5.5.1-1.3.6-3.4 1.5-3.2 2.9.1 1 1.8 1.5 2.8 1.4zM420 403.8c-3.6-4-5.3-11.6-7.2-19.7-1.8-8.1-3.9-16.8-10.5-22.4-1.3-1.1-2.6-2.1-4-2.9-1.3-.8-2.7-1.5-4.1-2 9.2-27.3 5.6-54.5-3.7-79.1-11.4-30.1-31.3-56.4-46.5-74.4-17.1-21.5-33.7-41.9-33.4-72C311.1 85.4 315.7.1 234.8 0 132.4-.2 158 103.4 156.9 135.2c-1.7 23.4-6.4 41.8-22.5 64.7-18.9 22.5-45.5 58.8-58.1 96.7-12.7 37.1-19.5 73.4-2.2 97.2 12.7 17.9 33.7 31.7 62.3 31.7 14.2 0 35.3-4.9 66.7-26.8 24.7-17.1 50.9-18.2 64.8-18.2 22.9 0 37.8 12.2 63.8 12.2 14.5 0 31.5-2.3 50.6-22 12.1-12.4 19.5-30.9 24.3-52.3 4.7-21.2 9-43.1 3.4-65.2zm-142.7 69.9c-17.4 0-28.6-8.2-44.3-8.2-14.5 0-27.7 7.9-49.4 15.6-2.1.8-4.2 1.5-6.4 2.1-17.8 5-33.2 7.4-43.1 7.4-26.6 0-35.8-17.2-22.3-32.7 9.8-11.2 20.7-21.3 37.2-34.9 19.7-16.2 39.2-15.2 57.3-7.8 5.1 2.1 10 5.3 14.7 8.9 4.7 3.6 9.2 7.9 13.3 12.5 4.1 4.6 7.8 9.6 11 14.6 3.9 6.2 6.2 13.2 6.2 18.7-.1 16.5-16.3 24.8-33.6 24.8zm-167-93.1c8.7-17 21.9-30.8 35.2-42.9 7.2-6.6 15-12.3 24.1-17.2 9-4.8 19.3-8.5 32.5-9.4 3.1-3.9 6.3-7.9 9.5-11.9 3.2-4 6.3-8.1 9.3-12.1 1.5-2.1 2.9-4.1 4.3-6.1s2.8-3.9 4-5.7c2.8-4.6 3.8-9.1 3-13.7-.8-4.6-4-9.1-9.9-13.6l-2.9-2.1c-3.6-2.6-6.6-4.9-9.1-6.9-5.8-4.4-9.2-7.9-11.9-12.1-2.7-4.2-4.8-9.1-7.3-16.7L293 124.1c-1-3.2-1.6-5.8-1.8-7.7-.2-2-.1-3.5.3-4.8.4-1.3 1.1-2.4 2.3-3.2 1.1-.9 2.6-1.6 4.5-2 1.9-.4 4.1-.5 6.7-.3 2.5.3 5.1 1 7.9 2 5.5 2 11 5.9 18.6 11.4 7.5 5.5 16.1 12.5 25.9 20.8 9.8 8.3 20.8 18.1 33.2 29.2 12.4 11.1 26.9 23.7 43.5 37.2 17 13.5 36.3 28.4 58 44.2 21.8 15.8 45.9 32.5 72 49.9 14.6 9.8 27.6 19.4 38.7 28.5 11.1 9.1 20.5 17.8 28.3 25.9 7.8 8.1 13.9 15.6 18.6 22.6 4.6 7 7.8 13.4 9.9 19.4 2 5.9 2.9 11.4 2.7 16.3-.2 4.9-1.4 9.4-3.4 13.3-3.4 6.6-8.4 11.4-14.9 14.1-6.5 2.8-14 3.2-22.6 1.4-8.6-1.8-18.1-6-28.6-12.2-10.5-6.2-22-14.8-34.9-25.5-12.8-10.8-26.8-23.6-42.1-38.3-15.2-14.8-31.5-31.4-49-49.9-17.4-18.5-35.9-38.9-55.7-60.8-19.7-21.9-40.4-45.1-62.9-70-21.6-23.7-43.4-47.8-65.4-72.3-1.8-2-3.6-3.8-5.4-5.5-1.8-1.6-3.6-3-5.4-4.1l-3.2-1.9c-1.1-.6-2.2-1-3.3-1.3-2.2-.6-4.4-.8-6.5-.6-2.1.1-4.2.7-6 1.5-3.8 1.6-7 4.2-9.8 7.7-2.8 3.5-5.2 7.8-7.3 13-2 5.2-3.6 11.1-4.8 17.8-1.2 6.7-2 14.1-2.6 22.4-.8 11.9-.5 26.8 1 44.8 1.4 18 4.3 38.9 8.3 62.5 1 5.9 2.1 12 3.4 18.4s2.7 12.8 4.3 19.3c3.2 12.9 7.4 26.1 12.6 39.6 5.2 13.5 11.6 27.1 19 40.7 5.3 9.6 10.9 18.5 17 26.5s12.3 15 18.9 20.7c2.8 2.5 5.8 4.8 8.8 6.9 3.1 2.1 6.2 3.8 9.4 5.3 6.5 2.9 13.1 5 20.1 6.2 7 1.2 14.1 1.5 21.5.9 7.4-.6 15-2 22.8-4.3 7.8-2.3 15.7-5.5 23.8-9.5 17.2-8.5 34.5-21.9 51.1-41.1 16.6-19.2 32.5-44.9 45.7-77.3 1.6-4 3.2-8.1 4.8-12.5s3.1-9 4.6-13.8c2.9-9.7 5.5-20 7.8-31.1 2.3-11.1 4.1-22.8 5.5-35.1 1.4-12.4 2.3-25.4 2.7-39.2.5-13.8.2-28.1-.7-42.9-.9-14.9-2.5-30.3-4.8-46.2-2.3-15.9-5.3-32.1-9-48.8-3.7-16.6-8-33.5-13-50.7s-10.5-34.5-16.5-51.9C321.7 110 318.2 102 315 94.5c-3.1-7.5-6.2-14.5-9.1-21.1-2.9-6.6-5.7-12.6-8.2-18.1-2.5-5.5-4.9-10.4-7-14.8l-3.1-6c-1-1.9-1.7-3.2-2.3-4.1a7.7 7.7 0 0 0-.8-1.1l-1.5 2a8.1 8.1 0 0 0-.8 1.1c-.7.9-1.7 2.3-2.9 4.1-1.3 1.8-2.8 4.1-4.4 6.6-3.4 4.5-6.9 10.1-10.8 16.6-3.8 6.5-7.7 13.9-11.8 22.1-4.1 8.2-8.2 17.2-12.5 26.8-4.2 9.7-8.6 20.1-13 31.1"/>
</svg> 